<?xml version="1.0" encoding="UTF-8" standalone="no"?>
<!-- Generator: Adobe Illustrator 19.1.0, SVG Export Plug-In . SVG Version: 6.00 Build 0)  -->

<svg
   xmlns:dc="http://purl.org/dc/elements/1.1/"
   xmlns:cc="http://creativecommons.org/ns#"
   xmlns:rdf="http://www.w3.org/1999/02/22-rdf-syntax-ns#"
   xmlns:svg="http://www.w3.org/2000/svg"
   xmlns="http://www.w3.org/2000/svg"
   xmlns:sodipodi="http://sodipodi.sourceforge.net/DTD/sodipodi-0.dtd"
   xmlns:inkscape="http://www.inkscape.org/namespaces/inkscape"
   version="1.1"
   x="0px"
   y="0px"
   width="82.137817"
   height="53.765873"
   viewBox="0 0 82.137817 53.765873"
   enable-background="new 0 0 500 370"
   xml:space="preserve"
   id="svg3200"
   inkscape:version="0.48.4 r9939"
   sodipodi:docname="workspace.svg"><metadata
     id="metadata3375"><rdf:RDF><cc:Work
         rdf:about=""><dc:format>image/svg+xml</dc:format><dc:type
           rdf:resource="http://purl.org/dc/dcmitype/StillImage" /><dc:title></dc:title></cc:Work></rdf:RDF></metadata><defs
     id="defs3373" /><sodipodi:namedview
     pagecolor="#ffffff"
     bordercolor="#666666"
     borderopacity="1"
     objecttolerance="10"
     gridtolerance="10"
     guidetolerance="10"
     inkscape:pageopacity="0"
     inkscape:pageshadow="2"
     inkscape:window-width="640"
     inkscape:window-height="480"
     id="namedview3371"
     showgrid="false"
     fit-margin-top="0"
     fit-margin-left="0"
     fit-margin-right="0"
     fit-margin-bottom="0"
     inkscape:zoom="0.64864865"
     inkscape:cx="40.01169"
     inkscape:cy="-21.466667"
     inkscape:window-x="69"
     inkscape:window-y="34"
     inkscape:window-maximized="0"
     inkscape:current-layer="svg3200" /><g
     id="Layer_3"
     transform="translate(-209.98831,-109.76746)"><path
       d="m 279.09381,126 c -0.007,0 -0.0133,0 -0.0201,0 -0.002,0 -0.003,0 -0.005,0 H 274 v -3 h -29 v 3 h -3.73186 c -0.002,0 -0.003,0 -0.005,0 -0.007,0 -0.0133,0 -0.02,0 -2.87889,0 -5.21274,2.12106 -5.21274,5 0,2.87889 2.33385,5 5.21274,5 0.007,0 0.0133,0 0.02,0 0.002,0 0.003,0 0.005,0 H 245 v 3 h 29 v -3 h 5.06876 c 0.002,0 0.003,0 0.005,0 0.007,0 0.0133,0 0.0201,0 2.87888,0 5.21271,-2.12111 5.21271,-5 0,-2.87894 -2.33383,-5 -5.21271,-5 z"
       id="path3203"
       inkscape:connector-curvature="0"
       style="fill:#4effbb" /><g
       id="g3205"><g
         id="g3207"><line
           x1="287.96155"
           y1="141.39104"
           x2="278.56265"
           y2="153.84163"
           id="line3209"
           style="fill:#ffffff" /><path
           d="m 278.56128,155.47559 c -0.34277,0 -0.68875,-0.10724 -0.983,-0.33 -0.72064,-0.54352 -0.86362,-1.56831 -0.31979,-2.28865 l 9.39905,-12.45045 c 0.54321,-0.72 1.56897,-0.86395 2.28833,-0.31947 0.72064,0.54352 0.86362,1.56831 0.31979,2.28865 l -9.39905,12.45045 c -0.32108,0.42542 -0.81,0.64947 -1.30533,0.64947 z"
           id="path3211"
           inkscape:connector-curvature="0"
           style="fill:#222051" /></g><g
         id="g3213"><line
           x1="287.75729"
           y1="139.84355"
           x2="272.47421"
           y2="123.60836"
           id="line3215"
           style="fill:#ffffff" /><path
           d="m 287.75797,141.80437 c -0.52213,0 -1.04236,-0.20682 -1.42853,-0.61693 l -15.28293,-16.23528 c -0.74234,-0.78831 -0.70468,-2.02949 0.0836,-2.77184 0.79022,-0.74203 2.02982,-0.70469 2.77216,0.0839 l 15.28293,16.23529 c 0.74237,0.78831 0.70471,2.0295 -0.0836,2.77184 -0.37916,0.35617 -0.8617,0.53298 -1.34363,0.53298 z"
           id="path3217"
           inkscape:connector-curvature="0"
           style="fill:#222051" /></g><g
         id="g3219"><g
           id="g3221"><path
             d="m 267.86423,157.93799 c -0.37723,-0.37723 -0.98883,-0.37723 -1.36606,0 l 0,0 c -0.37723,0.37721 -0.37723,0.98882 0,1.36604 l 3.94638,3.94638 c 0.3772,0.37723 0.9888,0.37723 1.36603,0 l 0,0 c 0.37723,-0.37723 0.37723,-0.98883 0,-1.36606 l -3.94635,-3.94636 z"
             id="path3223"
             inkscape:connector-curvature="0"
             style="fill:#222051" /></g><g
           id="g3225"><path
             d="m 266.49817,150.67735 c -0.37723,0.37721 -0.37723,0.98882 0,1.36604 l 0,0 c 0.37723,0.37723 0.98883,0.37723 1.36606,0 l 3.94635,-3.94637 c 0.37723,-0.37723 0.37723,-0.98883 0,-1.36606 l 0,0 c -0.37723,-0.37723 -0.98883,-0.37723 -1.36603,0 l -3.94638,3.94639 z"
             id="path3227"
             inkscape:connector-curvature="0"
             style="fill:#222051" /></g><g
           id="g3229"><path
             d="m 275.77719,154.23738 c 0.52512,0.52515 1.37656,0.52515 1.90167,0 l 0,0 c 0.52515,-0.52513 0.52515,-1.37656 0,-1.90169 l -5.49377,-5.49379 c -0.52515,-0.52513 -1.37656,-0.52513 -1.9017,0 l 0,0 c -0.52512,0.52515 -0.52512,1.37656 0,1.9017 l 5.4938,5.49378 z"
             id="path3231"
             inkscape:connector-curvature="0"
             style="fill:#222051" /></g><g
           id="g3233"><path
             d="m 277.67886,157.48325 c 0.52515,-0.52515 0.52515,-1.37656 0,-1.9017 l 0,0 c -0.52512,-0.52513 -1.37656,-0.52513 -1.90167,0 l -5.4938,5.49379 c -0.52512,0.52513 -0.52512,1.37656 0,1.90169 l 0,0 c 0.52515,0.52515 1.37656,0.52515 1.9017,0 l 5.49377,-5.49378 z"
             id="path3235"
             inkscape:connector-curvature="0"
             style="fill:#222051" /></g><g
           id="g3237"><g
             id="g3239"><g
               id="g3241"><circle
                 cx="278.07272"
                 cy="155.1877"
                 r="3.3933599"
                 id="circle3243"
                 sodipodi:cx="278.07272"
                 sodipodi:cy="155.1877"
                 sodipodi:rx="3.3933599"
                 sodipodi:ry="3.3933599"
                 style="fill:#ffffff"
                 d="m 281.46608,155.1877 c 0,1.8741 -1.51926,3.39336 -3.39336,3.39336 -1.8741,0 -3.39336,-1.51926 -3.39336,-3.39336 0,-1.8741 1.51926,-3.39336 3.39336,-3.39336 1.8741,0 3.39336,1.51926 3.39336,3.39336 z" /></g><g
               id="g3245"><path
                 d="m 278.07297,159.55659 0,0 c -0.006,0 -0.0568,-4.6e-4 -0.0632,-4.6e-4 -1.16656,-0.017 -2.25705,-0.48706 -3.06989,-1.32419 -0.81375,-0.83665 -1.2518,-1.94044 -1.23529,-3.10747 0.033,-2.37344 1.99222,-4.30565 4.36749,-4.30565 2.4715,0.0348 4.40326,2.02246 4.36935,4.4312 -0.0348,2.37483 -1.99407,4.30657 -4.36843,4.30657 z m 0.0153,-5.4508 c -0.60382,0 -1.08896,0.47809 -1.09726,1.06596 -0.004,0.28947 0.10406,0.56299 0.30576,0.77011 0.20108,0.20746 0.47107,0.32362 0.76022,0.32777 l 0.016,3.2e-4 c 0.58789,0 1.07364,-0.47873 1.08194,-1.06693 0.008,-0.59616 -0.46979,-1.08895 -1.06662,-1.09723 l 0,0 z"
                 id="path3247"
                 inkscape:connector-curvature="0"
                 style="fill:#222051" /></g></g></g></g><g
         id="g3249"><path
           d="m 270.90955,153.1676 c 0,-1.02548 -0.8313,-1.85681 -1.85678,-1.85681 h -3.71362 c -1.02548,0 -1.85678,0.83133 -1.85678,1.85681 v 3.71361 c 0,1.02548 0.8313,1.8568 1.85678,1.8568 h 3.71362 c 1.02548,0 1.85678,-0.83131 1.85678,-1.8568 v -3.71361 z"
           id="path3251"
           inkscape:connector-curvature="0"
           style="fill:#4cffba" /></g><g
         id="g3253"><g
           id="g3255"><g
             id="g3257"><circle
               cx="287.75729"
               cy="141.38608"
               r="3.3933599"
               id="circle3259"
               sodipodi:cx="287.75729"
               sodipodi:cy="141.38608"
               sodipodi:rx="3.3933599"
               sodipodi:ry="3.3933599"
               style="fill:#ffffff"
               d="m 291.15065,141.38608 c 0,1.8741 -1.51926,3.39336 -3.39336,3.39336 -1.8741,0 -3.39336,-1.51926 -3.39336,-3.39336 0,-1.8741 1.51926,-3.39336 3.39336,-3.39336 1.8741,0 3.39336,1.51926 3.39336,3.39336 z" /></g></g></g><path
         d="m 287.75729,145.75494 0,0 c -0.006,0 -0.0568,-4.6e-4 -0.0632,-4.6e-4 -1.16656,-0.017 -2.25708,-0.48706 -3.06992,-1.32417 -0.81375,-0.83667 -1.25177,-1.94044 -1.23529,-3.10747 0.033,-2.37344 1.99225,-4.30565 4.36752,-4.30565 2.4715,0.0348 4.40323,2.02246 4.36932,4.43118 -0.0348,2.37484 -1.99404,4.30657 -4.3684,4.30657 z m 0.0153,-5.4508 c -0.60385,0 -1.08896,0.4781 -1.09726,1.06598 -0.004,0.28947 0.10403,0.56299 0.30576,0.77011 0.20105,0.20744 0.47107,0.32362 0.76022,0.32777 l 0.016,3.2e-4 c 0.58786,0 1.07361,-0.47873 1.08191,-1.06693 0.008,-0.59617 -0.46978,-1.08895 -1.06659,-1.09725 l 0,0 z"
         id="path3261"
         inkscape:connector-curvature="0"
         style="fill:#222051" /></g><g
       id="g3263"><g
         id="g3265"><line
           x1="214.35718"
           y1="137.64334"
           x2="226.08383"
           y2="147.93126"
           id="line3267"
           style="fill:#ffffff" /><path
           d="m 226.08334,149.5652 c -0.38266,0 -0.76692,-0.13341 -1.07715,-0.40564 l -11.72693,-10.28789 c -0.67821,-0.59521 -0.74586,-1.62767 -0.15065,-2.3062 0.59554,-0.67851 1.62769,-0.74554 2.3062,-0.15063 l 11.72694,10.28789 c 0.67819,0.59521 0.74586,1.62767 0.15063,2.30618 -0.32297,0.368 -0.77489,0.55629 -1.22904,0.55629 z"
           id="path3269"
           inkscape:connector-curvature="0"
           style="fill:#222051" /></g><g
         id="g3271"><line
           x1="214.35718"
           y1="137.64334"
           x2="232.37653"
           y2="124.51107"
           id="line3273"
           style="fill:#ffffff" /><path
           d="m 214.35863,139.60413 c -0.60542,0 -1.20256,-0.27925 -1.58618,-0.80586 -0.63799,-0.87543 -0.44554,-2.10193 0.42958,-2.73959 l 18.01935,-13.13217 c 0.87576,-0.63799 2.10258,-0.44522 2.73961,0.42957 0.63799,0.87543 0.44554,2.10194 -0.42958,2.73961 l -18.01935,13.13216 c -0.34852,0.25404 -0.75289,0.37628 -1.15343,0.37628 z"
           id="path3275"
           inkscape:connector-curvature="0"
           style="fill:#222051" /></g><g
         id="g3277"><g
           id="g3279"><path
             d="m 236.29234,150.68155 c 0.37723,-0.37723 0.98883,-0.37723 1.36606,0 l 0,0 c 0.37723,0.37723 0.37723,0.98883 0,1.36604 l -3.94638,3.94638 c -0.37723,0.37723 -0.98883,0.37723 -1.36604,0 l 0,0 c -0.37723,-0.37723 -0.37723,-0.98883 0,-1.36606 l 3.94636,-3.94636 z"
             id="path3281"
             inkscape:connector-curvature="0"
             style="fill:#222051" /></g><g
           id="g3283"><path
             d="m 237.6584,143.42091 c 0.37723,0.37721 0.37723,0.98882 0,1.36604 l 0,0 c -0.37723,0.37723 -0.98883,0.37723 -1.36606,0 l -3.94637,-3.94637 c -0.37723,-0.37723 -0.37723,-0.98883 0,-1.36606 l 0,0 c 0.37721,-0.37723 0.98882,-0.37723 1.36604,0 l 3.94639,3.94639 z"
             id="path3285"
             inkscape:connector-curvature="0"
             style="fill:#222051" /></g><g
           id="g3287"><path
             d="m 228.37938,146.98094 c -0.52513,0.52515 -1.37656,0.52515 -1.90169,0 l 0,0 c -0.52515,-0.52513 -0.52515,-1.37656 0,-1.90169 l 5.49377,-5.49379 c 0.52515,-0.52513 1.37656,-0.52513 1.9017,0 l 0,0 c 0.52513,0.52515 0.52513,1.37656 0,1.9017 l -5.49378,5.49378 z"
             id="path3289"
             inkscape:connector-curvature="0"
             style="fill:#222051" /></g><g
           id="g3291"><path
             d="m 226.47769,150.22681 c -0.52515,-0.52515 -0.52515,-1.37656 0,-1.9017 l 0,0 c 0.52513,-0.52513 1.37656,-0.52513 1.90169,0 l 5.49379,5.49379 c 0.52513,0.52515 0.52513,1.37656 0,1.9017 l 0,0 c -0.52515,0.52513 -1.37656,0.52513 -1.9017,0 l -5.49378,-5.49379 z"
             id="path3293"
             inkscape:connector-curvature="0"
             style="fill:#222051" /></g><g
           id="g3295"><g
             id="g3297"><g
               id="g3299"><circle
                 cx="226.08383"
                 cy="147.93126"
                 r="3.3933599"
                 id="circle3301"
                 sodipodi:cx="226.08383"
                 sodipodi:cy="147.93126"
                 sodipodi:rx="3.3933599"
                 sodipodi:ry="3.3933599"
                 style="fill:#ffffff"
                 d="m 229.47719,147.93126 c 0,1.8741 -1.51926,3.39336 -3.39336,3.39336 -1.8741,0 -3.39336,-1.51926 -3.39336,-3.39336 0,-1.8741 1.51926,-3.39336 3.39336,-3.39336 1.8741,0 3.39336,1.51926 3.39336,3.39336 z" /></g></g></g><path
           d="m 226.08383,152.30014 0,0 c -0.006,0 -0.0568,-4.6e-4 -0.0632,-4.6e-4 -1.16656,-0.017 -2.25706,-0.48706 -3.0699,-1.32419 -0.81375,-0.83665 -1.25179,-1.94044 -1.23529,-3.10747 0.033,-2.37344 1.99222,-4.30565 4.36749,-4.30565 2.47151,0.0348 4.40324,2.02246 4.36934,4.4312 -0.0348,2.37482 -1.99405,4.30657 -4.36841,4.30657 z m 0.0153,-5.45081 c -0.60384,0 -1.08894,0.47809 -1.09724,1.06596 -0.004,0.28947 0.10405,0.56299 0.30576,0.77011 0.20107,0.20746 0.47107,0.32362 0.76022,0.32777 l 0.016,3.2e-4 c 0.58789,0 1.07364,-0.47873 1.08194,-1.06693 0.008,-0.59616 -0.46982,-1.08894 -1.06663,-1.09723 l 0,0 z"
           id="path3303"
           inkscape:connector-curvature="0"
           style="fill:#222051" /></g><g
         id="g3305"><path
           d="m 233.24699,145.91116 c 0,-1.02548 0.83133,-1.8568 1.85681,-1.8568 h 3.71361 c 1.02548,0 1.8568,0.83131 1.8568,1.8568 v 3.71361 c 0,1.02548 -0.83131,1.8568 -1.8568,1.8568 h -3.71361 c -1.02548,0 -1.85681,-0.83131 -1.85681,-1.8568 v -3.71361 z"
           id="path3307"
           inkscape:connector-curvature="0"
           style="fill:#4cffba" /></g><g
         id="g3309"><g
           id="g3311"><g
             id="g3313"><circle
               cx="214.35718"
               cy="137.64357"
               r="3.3933599"
               id="circle3315"
               sodipodi:cx="214.35718"
               sodipodi:cy="137.64357"
               sodipodi:rx="3.3933599"
               sodipodi:ry="3.3933599"
               style="fill:#ffffff"
               d="m 217.75054,137.64357 c 0,1.8741 -1.51926,3.39336 -3.39336,3.39336 -1.8741,0 -3.39336,-1.51926 -3.39336,-3.39336 0,-1.8741 1.51926,-3.39336 3.39336,-3.39336 1.8741,0 3.39336,1.51926 3.39336,3.39336 z" /></g></g></g><path
         d="m 214.35718,142.01245 0,0 c -0.006,0 -0.0568,-4.6e-4 -0.0632,-4.6e-4 -1.16656,-0.017 -2.25706,-0.48706 -3.0699,-1.32417 -0.81375,-0.83667 -1.25179,-1.94046 -1.23529,-3.10747 0.033,-2.37346 1.99223,-4.30565 4.36751,-4.30565 2.4715,0.0348 4.40324,2.02246 4.36934,4.43118 -0.0348,2.37482 -1.99407,4.30657 -4.36843,4.30657 z m 0.0153,-5.4508 c -0.60384,0 -1.08894,0.47809 -1.09724,1.06598 -0.004,0.28946 0.10403,0.56297 0.30574,0.77011 0.20107,0.20744 0.47107,0.32362 0.76022,0.32777 l 0.016,3.2e-4 c 0.58788,0 1.07362,-0.47873 1.08192,-1.06694 0.008,-0.59618 -0.46979,-1.08894 -1.0666,-1.09724 l 0,0 z"
         id="path3317"
         inkscape:connector-curvature="0"
         style="fill:#222051" /></g><g
       id="g3319"><path
         d="m 258.2608,128.99001 c -0.36911,0 -0.63489,-0.29921 -0.63489,-0.6683 v -9.08885 c 0,-0.36909 0.26578,-0.6683 0.63489,-0.6683 h 13.36118 c 0.002,0 0.003,4.9e-4 0.005,5e-4 0.007,-2e-5 0.0133,-5e-4 0.02,-5e-4 2.87891,0 5.21271,2.33381 5.21271,5.21272 0,2.87891 -2.3338,5.21273 -5.21271,5.21273 -0.007,0 -0.0133,-4.9e-4 -0.02,-5.2e-4 -0.002,3e-5 -0.003,5.2e-4 -0.005,5.2e-4 H 258.2608 z"
         id="path3321"
         inkscape:connector-curvature="0"
         style="fill:#ffffff" /><path
         d="m 271.64716,130.29732 c -0.008,-3.2e-4 -0.0166,-6.3e-4 -0.0249,0 h -13.36163 c -1.08896,0 -1.94171,-0.86777 -1.94171,-1.97556 v -9.08882 c 0,-1.10777 0.85275,-1.97556 1.94171,-1.97556 h 13.36163 c 0.0102,0 0.0204,0 0.0306,3.2e-4 3.60388,0.0134 6.51392,2.93301 6.51392,6.51965 -1e-5,3.59526 -2.92472,6.51997 -6.51966,6.51997 z m -12.71378,-2.6145 h 12.65314 c 0.0249,-6.3e-4 0.0479,-9.5e-4 0.0791,0 2.14471,-0.01 3.88666,-1.75821 3.88666,-3.90546 0,-2.15364 -1.75214,-3.90547 -3.90515,-3.90547 -0.008,0 -0.016,0 -0.0249,-3.2e-4 v 3.2e-4 h -12.68887 v 7.81093 z"
         id="path3323"
         inkscape:connector-curvature="0"
         style="fill:#222051" /></g><circle
       cx="271.5928"
       cy="123.77728"
       r="1.37126"
       id="circle3325"
       sodipodi:cx="271.5928"
       sodipodi:cy="123.77728"
       sodipodi:rx="1.37126"
       sodipodi:ry="1.37126"
       style="fill:#222051"
       d="m 272.96406,123.77728 c 0,0.75733 -0.61393,1.37126 -1.37126,1.37126 -0.75732,0 -1.37126,-0.61393 -1.37126,-1.37126 0,-0.75732 0.61394,-1.37126 1.37126,-1.37126 0.75733,0 1.37126,0.61394 1.37126,1.37126 z" /><g
       id="g3327"><path
         d="m 247.18257,118.56455 c 0.36908,0 0.63487,0.29921 0.63487,0.6683 v 9.08885 c 0,0.36909 -0.26579,0.6683 -0.63487,0.6683 h -13.36121 c -0.002,0 -0.003,-4.9e-4 -0.005,-5.2e-4 -0.007,3e-5 -0.0133,5.2e-4 -0.02,5.2e-4 -2.87891,0 -5.21272,-2.33382 -5.21272,-5.21273 0,-2.87891 2.33382,-5.21272 5.21272,-5.21272 0.007,0 0.0133,4.8e-4 0.02,5e-4 0.002,-2e-5 0.003,-5e-4 0.005,-5e-4 h 13.36121 z"
         id="path3329"
         inkscape:connector-curvature="0"
         style="fill:#ffffff" /><path
         d="m 247.18251,130.29732 h -13.36099 c -0.0144,0 -0.029,-3.2e-4 -0.0434,-6.3e-4 -3.59781,-0.0198 -6.50177,-2.93685 -6.50177,-6.51933 0,-3.59525 2.92471,-6.51997 6.51996,-6.51997 v 3.2e-4 c 0.009,-3.2e-4 0.0169,-3.2e-4 0.0252,-3.2e-4 h 13.36099 c 1.08928,0 1.94205,0.86778 1.94205,1.97556 v 9.08882 c 0,1.10778 -0.85277,1.97555 -1.94205,1.97555 z m -13.36674,-10.42511 c -2.17343,0 -3.92494,1.75182 -3.92494,3.90515 0,2.15364 1.75183,3.90546 3.90547,3.90546 0.008,0 0.0166,0 0.0252,3.2e-4 v -3.2e-4 h 12.68854 v -7.81094 H 233.8448 c -0.01,3.2e-4 -0.0191,3.2e-4 -0.0284,3.2e-4 h -6.4e-4 z"
         id="path3331"
         inkscape:connector-curvature="0"
         style="fill:#222051" /></g><g
       id="g3333"><rect
         x="238.48079"
         y="115.99348"
         width="28.297649"
         height="16.13463"
         id="rect3335"
         style="fill:#302c58" /><path
         d="m 266.77817,133.43523 h -28.29735 c -0.72192,0 -1.30725,-0.58533 -1.30725,-1.30725 v -16.13443 c 0,-0.72192 0.58533,-1.30725 1.30725,-1.30725 h 28.29735 c 0.72192,0 1.30725,0.58533 1.30725,1.30725 v 16.13443 c 0,0.72192 -0.58533,1.30725 -1.30725,1.30725 z m -26.9901,-2.61449 h 25.68285 V 117.3008 h -25.68285 v 13.51994 z"
         id="path3337"
         inkscape:connector-curvature="0"
         style="fill:#222051" /></g><g
       id="g3339"><g
         id="g3341"><path
           d="m 251.10139,129.09666 c -0.12128,0 -0.24448,-0.0227 -0.36385,-0.0705 -0.50298,-0.20107 -0.74745,-0.77139 -0.54639,-1.27438 l 2.92918,-7.32519 c 0.20107,-0.50267 0.77235,-0.7465 1.27406,-0.54607 0.50298,0.20107 0.74745,0.77139 0.54639,1.27438 l -2.92918,7.3252 c -0.15319,0.3833 -0.52149,0.61659 -0.91021,0.61659 z"
           id="path3343"
           inkscape:connector-curvature="0"
           style="fill:#4cffba" /></g><g
         id="g3345"><g
           id="g3347"><path
             d="m 257.46146,128.20624 c -0.25085,0 -0.50171,-0.0958 -0.69321,-0.28724 -0.38297,-0.38267 -0.38297,-1.00374 0,-1.3864 l 2.70386,-2.70386 c 0.383,-0.38299 1.00342,-0.38299 1.38641,0 0.383,0.38266 0.383,1.00373 0,1.3864 l -2.70386,2.70386 c -0.19149,0.19149 -0.44235,0.28724 -0.6932,0.28724 z"
             id="path3349"
             inkscape:connector-curvature="0"
             style="fill:#4cffba" /></g><g
           id="g3351"><path
             d="m 260.16531,125.50237 c -0.25085,0 -0.50171,-0.0957 -0.69321,-0.28723 l -2.70386,-2.70387 c -0.38297,-0.38266 -0.38297,-1.00373 0,-1.3864 0.383,-0.38298 1.00342,-0.38298 1.38641,0 l 2.70386,2.70387 c 0.383,0.38266 0.383,1.00373 0,1.3864 -0.19149,0.19149 -0.44234,0.28723 -0.6932,0.28723 z"
             id="path3353"
             inkscape:connector-curvature="0"
             style="fill:#4cffba" /></g></g><g
         id="g3355"><g
           id="g3357"><path
             d="m 245.04706,125.50237 c -0.25084,0 -0.50169,-0.0957 -0.69319,-0.28723 -0.38298,-0.38267 -0.38298,-1.00374 0,-1.3864 l 2.70386,-2.70387 c 0.38298,-0.38298 1.00342,-0.38298 1.3864,0 0.38298,0.38267 0.38298,1.00374 0,1.3864 l -2.70386,2.70387 c -0.1915,0.19149 -0.44236,0.28723 -0.69321,0.28723 z"
             id="path3359"
             inkscape:connector-curvature="0"
             style="fill:#4cffba" /></g><g
           id="g3361"><path
             d="m 247.75093,128.20624 c -0.25085,0 -0.50172,-0.0958 -0.69321,-0.28724 l -2.70386,-2.70386 c -0.38298,-0.38267 -0.38298,-1.00374 0,-1.3864 0.38298,-0.38299 1.00342,-0.38299 1.3864,0 l 2.70386,2.70386 c 0.38298,0.38266 0.38298,1.00373 0,1.3864 -0.19148,0.19149 -0.44233,0.28724 -0.69319,0.28724 z"
             id="path3363"
             inkscape:connector-curvature="0"
             style="fill:#4cffba" /></g></g></g><circle
       cx="233.85057"
       cy="123.77728"
       r="1.37126"
       id="circle3365"
       sodipodi:cx="233.85057"
       sodipodi:cy="123.77728"
       sodipodi:rx="1.37126"
       sodipodi:ry="1.37126"
       style="fill:#222051"
       d="m 235.22183,123.77728 c 0,0.75733 -0.61393,1.37126 -1.37126,1.37126 -0.75733,0 -1.37126,-0.61393 -1.37126,-1.37126 0,-0.75732 0.61393,-1.37126 1.37126,-1.37126 0.75733,0 1.37126,0.61394 1.37126,1.37126 z" /><g
       id="g3367"><path
         d="m 266.77817,112.38195 h -13.3644 c -0.72192,0 -1.30725,-0.58533 -1.30725,-1.30725 0,-0.72192 0.58533,-1.30724 1.30725,-1.30724 h 13.3644 c 0.72192,0 1.30725,0.58532 1.30725,1.30724 0,0.72192 -0.58533,1.30725 -1.30725,1.30725 z"
         id="path3369"
         inkscape:connector-curvature="0"
         style="fill:#222051" /></g></g></svg>