<?xml version="1.0" encoding="UTF-8" standalone="no"?>
<!-- Generator: Adobe Illustrator 19.1.0, SVG Export Plug-In . SVG Version: 6.00 Build 0)  -->

<svg
   xmlns:dc="http://purl.org/dc/elements/1.1/"
   xmlns:cc="http://creativecommons.org/ns#"
   xmlns:rdf="http://www.w3.org/1999/02/22-rdf-syntax-ns#"
   xmlns:svg="http://www.w3.org/2000/svg"
   xmlns="http://www.w3.org/2000/svg"
   xmlns:xlink="http://www.w3.org/1999/xlink"
   xmlns:sodipodi="http://sodipodi.sourceforge.net/DTD/sodipodi-0.dtd"
   xmlns:inkscape="http://www.inkscape.org/namespaces/inkscape"
   version="1.1"
   x="0px"
   y="0px"
   width="59.675331"
   height="53.682259"
   viewBox="0 0 59.675331 53.682259"
   enable-background="new 0 0 500 370"
   xml:space="preserve"
   id="svg3108"
   inkscape:version="0.48.4 r9939"
   sodipodi:docname="workspace.svg"><metadata
     id="metadata3191"><rdf:RDF><cc:Work
         rdf:about=""><dc:format>image/svg+xml</dc:format><dc:type
           rdf:resource="http://purl.org/dc/dcmitype/StillImage" /><dc:title></dc:title></cc:Work></rdf:RDF></metadata><defs
     id="defs3189" /><sodipodi:namedview
     pagecolor="#ffffff"
     bordercolor="#666666"
     borderopacity="1"
     objecttolerance="10"
     gridtolerance="10"
     guidetolerance="10"
     inkscape:pageopacity="0"
     inkscape:pageshadow="2"
     inkscape:window-width="640"
     inkscape:window-height="480"
     id="namedview3187"
     showgrid="false"
     fit-margin-top="0"
     fit-margin-left="0"
     fit-margin-right="0"
     fit-margin-bottom="0"
     inkscape:zoom="0.64864865"
     inkscape:cx="152.24839"
     inkscape:cy="-15.31775"
     inkscape:window-x="69"
     inkscape:window-y="34"
     inkscape:window-maximized="0"
     inkscape:current-layer="svg3108" /><g
     id="Layer_2"
     transform="translate(-97.75161,-115.99999)"><g
       id="g3111"><defs
         id="defs3113"><rect
           id="SVGID_1_"
           x="103"
           y="111"
           width="52"
           height="51" /></defs><clipPath
         id="SVGID_2_"><use
           xlink:href="#SVGID_1_"
           overflow="visible"
           id="use3117"
           style="overflow:visible"
           x="0"
           y="0"
           width="500"
           height="370" /></clipPath><g
         clip-path="url(#SVGID_2_)"
         id="g3119"><path
           d="M 149,180.08537 C 149,181.69507 147.69507,183 146.08537,183 H 115.91463 C 114.30492,183 113,181.69507 113,180.08537 V 127.91463 C 113,126.30492 114.30492,125 115.91463,125 h 30.17074 c 1.6097,0 2.91463,1.30492 2.91463,2.91463 v 52.17074 z"
           id="path3121"
           inkscape:connector-curvature="0"
           style="fill:#4effbb" /></g><g
         clip-path="url(#SVGID_2_)"
         id="g3123"><rect
           x="110.8241"
           y="127.36367"
           width="27.452221"
           height="53.351421"
           id="rect3125"
           style="fill:#302c58" /><path
           d="M 138.13025,182.02237 H 110.8241 c -0.72192,0 -1.30725,-0.58533 -1.30725,-1.30725 v -53.35145 c 0,-0.72192 0.58533,-1.30724 1.30725,-1.30724 h 27.30615 c 0.72192,0 1.30725,0.58532 1.30725,1.30724 v 53.35145 c 0,0.72192 -0.58533,1.30725 -1.30725,1.30725 z m -25.9989,-2.61449 H 136.823 v -50.73695 h -24.69165 v 50.73695 z"
           id="path3127"
           inkscape:connector-curvature="0"
           style="fill:#222051" /></g><g
         clip-path="url(#SVGID_2_)"
         id="g3129"><path
           d="M 144,171.77824 C 144,174.10986 142.10986,176 139.77824,176 h -30.5565 c -2.3316,0 -4.22175,-1.89014 -4.22175,-4.22176 v -51.5565 c 0,-2.3316 1.89014,-4.22175 4.22175,-4.22175 h 30.5565 c 2.33162,0 4.22176,1.89014 4.22176,4.22175 v 51.5565 z m -3,-51.17099 C 141,119.71959 140.28041,119 139.39275,119 H 109.60726 C 108.71959,119 108,119.71959 108,120.60725 v 50.78549 c 0,0.88766 0.71959,1.60725 1.60725,1.60725 h 29.78549 c 0.88766,0 1.60725,-0.71959 1.60725,-1.60725 v -50.78549 z"
           id="path3131"
           inkscape:connector-curvature="0"
           style="fill:#222051" /></g></g><g
       id="g3133"><path
         d="m 127.16471,124 h -5.229 c -0.72192,0 -1.30725,-0.77808 -1.30725,-1.5 0,-0.72192 0.58533,-1.5 1.30725,-1.5 h 5.229 c 0.72192,0 1.30724,0.77808 1.30724,1.5 0,0.72192 -0.58532,1.5 -1.30724,1.5 z"
         id="path3135"
         inkscape:connector-curvature="0"
         style="fill:#302c58" /></g><g
       id="g3137"><path
         d="M 149.38794,165 H 99.05886 c -0.72192,0 -1.30725,-0.77808 -1.30725,-1.5 0,-0.72192 0.58533,-1.5 1.30725,-1.5 h 50.32908 c 0.72192,0 1.30725,0.77808 1.30725,1.5 0,0.72192 -0.58533,1.5 -1.30725,1.5 z"
         id="path3139"
         inkscape:connector-curvature="0"
         style="fill:#222051" /></g><g
       id="g3141"><g
         id="g3143"><g
           id="g3145"><path
             d="m 125.43586,137.04134 c -0.5416,0 -0.98044,-0.43884 -0.98044,-0.98044 v -3.0878 c 0,-0.5416 0.43884,-0.98044 0.98044,-0.98044 0.5416,0 0.98044,0.43884 0.98044,0.98044 v 3.0878 c 0,0.54159 -0.43884,0.98044 -0.98044,0.98044 z"
             id="path3147"
             inkscape:connector-curvature="0"
             style="fill:#4cffba" /></g><g
           id="g3149"><path
             d="m 125.43586,133.89417 h -3.32525 c -0.5416,0 -0.98044,-0.43883 -0.98044,-0.98042 0,-0.54161 0.43884,-0.98044 0.98044,-0.98044 h 3.32525 c 0.5416,0 0.98044,0.43883 0.98044,0.98044 0,0.54159 -0.43884,0.98042 -0.98044,0.98042 z"
             id="path3151"
             inkscape:connector-curvature="0"
             style="fill:#4cffba" /></g></g><g
         id="g3153"><path
           d="m 118.72536,149 c -0.52341,0 -0.95778,-0.3214 -0.97916,-0.84895 -0.24192,-6.05113 2.25704,-11.68785 7.03667,-15.95525 0.40405,-0.36159 1.02415,-0.3028 1.38416,0.10126 0.36064,0.40404 0.32585,1.03505 -0.0782,1.39569 -4.33441,3.87036 -6.60135,8.91971 -6.38305,14.37434 0.0214,0.54128 -0.39958,0.93291 -0.94054,0.93291 -0.0134,0 -0.0268,0 -0.0399,0 z"
           id="path3155"
           inkscape:connector-curvature="0"
           style="fill:#4cffba" /></g><g
         id="g3157"><path
           d="m 118.726,152.27225 c -1.39183,0 -2.52418,-1.13235 -2.52418,-2.52449 0,-1.39183 1.13235,-2.52419 2.52418,-2.52419 1.39214,0 2.52449,1.13235 2.52449,2.52419 0,1.39213 -1.13235,2.52449 -2.52449,2.52449 z m 0,-3.0878 c -0.31054,0 -0.56331,0.25278 -0.56331,0.56331 0,0.31085 0.25277,0.56363 0.56331,0.56363 0.31085,0 0.56362,-0.25278 0.56362,-0.56363 0,-0.31053 -0.25277,-0.56331 -0.56362,-0.56331 z"
           id="path3159"
           inkscape:connector-curvature="0"
           style="fill:#4cffba" /></g><g
         id="g3161"><g
           id="g3163"><path
             d="m 129.63878,147.46741 c -0.25085,0 -0.50171,-0.0958 -0.69321,-0.28723 l -3.55184,-3.55217 c -0.38298,-0.38298 -0.38298,-1.00374 0,-1.3864 0.38298,-0.38298 1.00342,-0.38298 1.3864,0 l 3.55184,3.55217 c 0.383,0.38298 0.383,1.00374 0,1.3864 -0.19148,0.19148 -0.44234,0.28723 -0.69319,0.28723 z"
             id="path3165"
             inkscape:connector-curvature="0"
             style="fill:#4cffba" /></g><g
           id="g3167"><path
             d="m 126.08693,147.46741 c -0.25085,0 -0.50171,-0.0958 -0.6932,-0.28723 -0.38298,-0.38266 -0.38298,-1.00342 0,-1.3864 l 3.55184,-3.55217 c 0.38235,-0.38298 1.00342,-0.38298 1.3864,0 0.383,0.38266 0.383,1.00342 0,1.3864 l -3.55184,3.55217 c -0.19117,0.19148 -0.44235,0.28723 -0.6932,0.28723 z"
             id="path3169"
             inkscape:connector-curvature="0"
             style="fill:#4cffba" /></g></g><g
         id="g3171"><path
           d="m 127.84834,154.46547 c -0.4216,0 -0.81097,-0.27415 -0.93863,-0.69862 -0.0673,-0.2234 -0.12926,-0.44969 -0.18543,-0.67693 -0.13021,-0.52565 0.19054,-1.05736 0.71618,-1.18724 0.52628,-0.1299 1.05735,0.19084 1.18725,0.71617 0.0485,0.19595 0.10213,0.39096 0.1599,0.58372 0.15575,0.51831 -0.1382,1.06534 -0.65681,1.22108 -0.0938,0.0284 -0.18896,0.0418 -0.28246,0.0418 z m -0.39576,-3.8694 c -0.0549,0 -0.11043,-0.004 -0.16628,-0.014 -0.53394,-0.0913 -0.89267,-0.59776 -0.8014,-1.13139 0.046,-0.26872 0.10947,-0.52884 0.18894,-0.77298 0.16788,-0.5148 0.72288,-0.79565 1.23576,-0.62874 0.5148,0.16756 0.7963,0.72096 0.62874,1.23576 -0.0501,0.15382 -0.0906,0.32074 -0.12065,0.49596 -0.0817,0.47808 -0.49627,0.81544 -0.96511,0.81544 z"
           id="path3173"
           inkscape:connector-curvature="0"
           style="fill:#4cffba" /></g><g
         id="g3175"><path
           d="m 129.18399,160.11574 c -1.39183,0 -2.52419,-1.13234 -2.52419,-2.52449 0,-1.39183 1.13235,-2.52417 2.52419,-2.52417 1.39214,0 2.52449,1.13234 2.52449,2.52417 0,1.39215 -1.13235,2.52449 -2.52449,2.52449 z m 0,-3.0878 c -0.31055,0 -0.56331,0.25278 -0.56331,0.56331 0,0.31085 0.25276,0.56363 0.56331,0.56363 0.31085,0 0.56361,-0.25278 0.56361,-0.56363 0,-0.31053 -0.25276,-0.56331 -0.56361,-0.56331 z"
           id="path3177"
           inkscape:connector-curvature="0"
           style="fill:#4cffba" /></g></g><g
       id="g3179"><path
         d="M 120.42325,169.68225 H 99.05886 c -0.72192,0 -1.30725,-0.58533 -1.30725,-1.30725 0,-0.72192 0.58533,-1.30725 1.30725,-1.30725 h 21.36439 c 0.72192,0 1.30725,0.58533 1.30725,1.30725 0,0.72192 -0.58533,1.30725 -1.30725,1.30725 z"
         id="path3181"
         inkscape:connector-curvature="0"
         style="fill:#222051" /></g><g
       id="g3183"><path
         d="m 156.11969,164.80725 h -1.36438 c -0.72192,0 -1.30725,-0.58533 -1.30725,-1.30725 0,-0.72192 0.58533,-1.30725 1.30725,-1.30725 h 1.36438 c 0.72192,0 1.30725,0.58533 1.30725,1.30725 0,0.72192 -0.58533,1.30725 -1.30725,1.30725 z"
         id="path3185"
         inkscape:connector-curvature="0"
         style="fill:#222051" /></g></g></svg>