<?xml version="1.0" encoding="UTF-8" standalone="no"?>
<svg
   xmlns:dc="http://purl.org/dc/elements/1.1/"
   xmlns:cc="http://creativecommons.org/ns#"
   xmlns:rdf="http://www.w3.org/1999/02/22-rdf-syntax-ns#"
   xmlns:svg="http://www.w3.org/2000/svg"
   xmlns="http://www.w3.org/2000/svg"
   xmlns:sodipodi="http://sodipodi.sourceforge.net/DTD/sodipodi-0.dtd"
   xmlns:inkscape="http://www.inkscape.org/namespaces/inkscape"
   version="1.1"
   x="0px"
   y="0px"
   width="40.784149"
   height="53.068668"
   viewBox="0 0 40.784149 53.068668"
   enable-background="new 0 0 500 370"
   xml:space="preserve"
   id="svg3644"
   inkscape:version="0.48.4 r9939"
   sodipodi:docname="test.svg"><metadata
     id="metadata3703"><rdf:RDF><cc:Work
         rdf:about=""><dc:format>image/svg+xml</dc:format><dc:type
           rdf:resource="http://purl.org/dc/dcmitype/StillImage" /><dc:title></dc:title></cc:Work></rdf:RDF></metadata><defs
     id="defs3701" /><sodipodi:namedview
     pagecolor="#ffffff"
     bordercolor="#666666"
     borderopacity="1"
     objecttolerance="10"
     gridtolerance="10"
     guidetolerance="10"
     inkscape:pageopacity="0"
     inkscape:pageshadow="2"
     inkscape:window-width="1541"
     inkscape:window-height="876"
     id="namedview3699"
     showgrid="false"
     inkscape:zoom="1.2756757"
     inkscape:cx="233.25466"
     inkscape:cy="-199.90246"
     inkscape:window-x="59"
     inkscape:window-y="24"
     inkscape:window-maximized="1"
     inkscape:current-layer="svg3644"
     fit-margin-top="0"
     fit-margin-left="0"
     fit-margin-right="0"
     fit-margin-bottom="0" /><g
     id="Layer_1"
     transform="translate(-353.31998,-214.10102)"><path
       d="m 379.40231,254.37029 c -0.0566,-6.30473 -4.98605,-11.41679 -11.04318,-11.41679 -6.05139,0 -10.97717,5.10263 -11.04291,11.39914 -0.75949,0.74379 -1.24637,1.76602 -1.24637,2.85751 0,2.15271 1.88809,4.0408 4.0408,4.0408 0.1712,0 0.33298,-0.0346 0.48657,-0.0866 0.95337,3.4566 4.11014,6.00534 7.85727,6.00534 3.73151,0 6.88129,-2.51932 7.85446,-5.94693 0.0909,0.0169 0.18381,0.0282 0.2796,0.0282 2.15271,0 4.0408,-1.88809 4.0408,-4.0408 1e-5,-1.08253 -0.47823,-2.09763 -1.22704,-2.83986 z"
       id="path3647"
       inkscape:connector-curvature="0"
       style="fill:#4effbb" /><g
       id="g3649"><g
         id="g3651"><path
           d="m 355.59232,251.6255 c 0,-5.52257 4.26361,-9.99948 9.52304,-9.99948 5.25943,0 9.52304,4.47691 9.52304,9.99948"
           id="path3653"
           inkscape:connector-curvature="0"
           style="fill:#302c58" /><path
           d="m 374.6387,252.93263 c -0.72192,0 -1.30722,-0.58533 -1.30722,-1.30725 0,-4.79271 -3.68558,-8.69212 -8.21628,-8.69212 -4.53006,0 -8.21564,3.89941 -8.21564,8.69212 0,0.72192 -0.58533,1.30725 -1.30725,1.30725 -0.72189,0 -1.30722,-0.58533 -1.30722,-1.30725 0,-6.23465 4.85812,-11.30661 10.83011,-11.30661 5.97199,0 10.83075,5.07196 10.83075,11.30661 0,0.72193 -0.58532,1.30725 -1.30725,1.30725 z"
           id="path3655"
           inkscape:connector-curvature="0"
           style="fill:#222051" /></g><g
         id="g3657"><path
           d="m 357.14212,258.39908 c -2.10767,0 -3.82214,-1.71448 -3.82214,-3.82217 0,-2.10768 1.71448,-3.82217 3.82214,-3.82217 0.72192,0 1.30725,0.58533 1.30725,1.30725 0,0.72192 -0.58533,1.30725 -1.30725,1.30725 -0.66574,0 -1.20767,0.5416 -1.20767,1.20767 0,0.66607 0.54193,1.20767 1.20767,1.20767 0.72192,0 1.30725,0.58533 1.30725,1.30725 0,0.72192 -0.58533,1.30725 -1.30725,1.30725 z"
           id="path3659"
           inkscape:connector-curvature="0"
           style="fill:#222051" /></g><g
         id="g3661"><path
           d="m 373.23956,258.39908 c -0.72192,0 -1.30725,-0.58533 -1.30725,-1.30725 0,-0.72192 0.58533,-1.30725 1.30725,-1.30725 0.66574,0 1.20767,-0.5416 1.20767,-1.20767 0,-0.66607 -0.54193,-1.20767 -1.20767,-1.20767 -0.72192,0 -1.30725,-0.58533 -1.30725,-1.30725 0,-0.72192 0.58533,-1.30725 1.30725,-1.30725 2.10767,0 3.82217,1.71449 3.82217,3.82217 10e-6,2.10769 -1.7145,3.82217 -3.82217,3.82217 z"
           id="path3663"
           inkscape:connector-curvature="0"
           style="fill:#222051" /></g><g
         id="g3665"><path
           d="m 365.2001,264.31775 c -4.38452,0 -7.952,-3.57132 -7.952,-7.96124 0,-0.12671 0.0198,-0.25278 0.0562,-0.37373 v -4.33409 c 0,-0.97438 0.64468,-1.95737 2.08536,-1.95737 h 11.60184 c 1.29001,0 2.19128,0.8049 2.19128,1.95737 v 4.67557 c 0,0.0942 -0.0102,0.1864 -0.03,0.27609 -0.12893,4.27758 -3.64663,7.7174 -7.95263,7.7174 z m -5.32858,-7.65009 c 0.1615,2.80408 2.49002,5.03558 5.32858,5.03558 2.94577,0 5.34198,-2.39841 5.34198,-5.34674 0,-0.0855 0.009,-0.17139 0.0262,-0.25629 v -3.79185 l -10.64948,-0.003 v 4.01843 c 1e-5,0.11842 -0.0166,0.23365 -0.0472,0.34342 z"
           id="path3667"
           inkscape:connector-curvature="0"
           style="fill:#222051" /></g></g><g
       id="g3669"><path
         d="m 394.10413,234.71968 c 0,-4.16594 -3.37717,-7.54309 -7.54309,-7.54309 -4.16592,0 -7.54309,3.37715 -7.54309,7.54309 0,5.56381 4.5257,5.45001 4.5257,8.40526 v 3.6488 c 0,1.04233 0.845,1.8873 1.88733,1.8873 h 2.45709 c 1.04233,0 1.8873,-0.84497 1.8873,-1.8873 v -3.6488 c -1e-5,-3.06905 4.32876,-2.84145 4.32876,-8.40526 z"
         id="path3671"
         inkscape:connector-curvature="0"
         style="fill:#4effbb" /><g
         id="g3673"><path
           d="m 383.83093,245.91127 h -2.45682 c -1.76172,0 -3.19473,-1.433 -3.19473,-3.19472 v -3.64886 c 0,-0.59459 -0.35233,-0.95778 -1.28616,-1.77066 -1.36725,-1.19044 -3.23941,-2.8213 -3.23941,-6.63454 0,-4.87985 3.97025,-8.85011 8.8501,-8.85011 4.87985,0 8.8501,3.97026 8.8501,8.85011 0,3.77397 -1.77512,5.37547 -3.0715,6.54486 -0.9313,0.83969 -1.25684,1.1933 -1.25684,1.86034 v 3.64886 c 0,1.76172 -1.43299,3.19472 -3.19474,3.19472 z m -1.32702,-21.48439 c -3.43854,0 -6.2356,2.79738 -6.2356,6.23561 0,2.62343 1.13745,3.61407 2.34195,4.66313 1.02383,0.89107 2.18362,1.90118 2.18362,3.74207 v 3.64886 c 0,0.31979 0.26044,0.58023 0.58023,0.58023 h 2.45682 c 0.31979,0 0.58023,-0.26044 0.58023,-0.58023 v -3.64886 c 0,-1.88907 1.12598,-2.90524 2.11981,-3.80174 1.13556,-1.02449 2.20853,-1.99216 2.20853,-4.60345 0,-3.43824 -2.79703,-6.23562 -6.23559,-6.23562 z"
           id="path3675"
           inkscape:connector-curvature="0"
           style="fill:#222051" /></g><g
         id="g3677"><path
           d="m 385.71841,241.98346 h -6.23178 c -0.72192,0 -1.30725,-0.58533 -1.30725,-1.30725 0,-0.72192 0.58533,-1.30724 1.30725,-1.30724 h 6.23178 c 0.72192,0 1.30725,0.58531 1.30725,1.30724 0,0.72193 -0.58532,1.30725 -1.30725,1.30725 z"
           id="path3679"
           inkscape:connector-curvature="0"
           style="fill:#222051" /></g><path
         stroke-miterlimit="10"
         d="m 380.55783,241.77299 c 0,1.04233 0.002,1.88731 0.68552,1.88731 h 2.71814 c 0.68396,0 0.68552,-0.84499 0.68552,-1.88731 h -4.08918 z"
         id="path3681"
         inkscape:connector-curvature="0"
         style="fill:#302c58;stroke:#222051;stroke-width:4;stroke-linecap:round;stroke-linejoin:round;stroke-miterlimit:10" /><g
         id="g3683"><path
           d="m 385.50714,232.23558 c -0.72192,0 -1.30725,-0.58531 -1.30725,-1.30724 0,-0.93544 -0.76086,-1.6963 -1.69598,-1.6963 -0.93512,0 -1.69598,0.76086 -1.69598,1.6963 0,0.72192 -0.58533,1.30724 -1.30725,1.30724 -0.72192,0 -1.30722,-0.58531 -1.30722,-1.30724 0,-2.37706 1.93341,-4.31081 4.31046,-4.31081 2.37705,0 4.31049,1.93375 4.31049,4.31081 -2e-5,0.72193 -0.58535,1.30724 -1.30727,1.30724 z"
           id="path3685"
           inkscape:connector-curvature="0"
           style="fill:#222051" /></g><g
         id="g3687"><path
           d="m 382.6022,219.92874 c -0.72192,0 -1.30725,-0.58533 -1.30725,-1.30725 v -3.21323 c 0,-0.72192 0.58533,-1.30724 1.30725,-1.30724 0.72192,0 1.30725,0.58531 1.30725,1.30724 v 3.21323 c 0,0.72192 -0.58532,1.30725 -1.30725,1.30725 z"
           id="path3689"
           inkscape:connector-curvature="0"
           style="fill:#222051" /></g><g
         id="g3691"><path
           d="m 374.75043,222.88187 c -0.33447,0 -0.66895,-0.12766 -0.92429,-0.38298 l -2.27173,-2.27205 c -0.51062,-0.51065 -0.51062,-1.33821 0,-1.84885 0.51065,-0.51001 1.33789,-0.51033 1.84854,3.2e-4 l 2.27173,2.27203 c 0.51065,0.51065 0.51065,1.33821 0,1.84886 -0.25531,0.25501 -0.58978,0.38267 -0.92425,0.38267 z"
           id="path3693"
           inkscape:connector-curvature="0"
           style="fill:#222051" /></g><g
         id="g3695"><path
           d="m 390.45401,222.88187 c -0.33447,0 -0.66895,-0.12766 -0.92429,-0.38298 -0.51062,-0.51065 -0.51062,-1.33821 0,-1.84886 l 2.27237,-2.27203 c 0.51065,-0.51001 1.33789,-0.51033 1.84854,3.2e-4 0.51065,0.51064 0.51065,1.3382 0,1.84885 l -2.27237,2.27205 c -0.2553,0.25499 -0.58978,0.38265 -0.92425,0.38265 z"
           id="path3697"
           inkscape:connector-curvature="0"
           style="fill:#222051" /></g></g></g></svg>