<?xml version="1.0" encoding="UTF-8" standalone="no"?>
<!-- Generator: Adobe Illustrator 19.1.0, SVG Export Plug-In . SVG Version: 6.00 Build 0)  -->

<svg
   xmlns:dc="http://purl.org/dc/elements/1.1/"
   xmlns:cc="http://creativecommons.org/ns#"
   xmlns:rdf="http://www.w3.org/1999/02/22-rdf-syntax-ns#"
   xmlns:svg="http://www.w3.org/2000/svg"
   xmlns="http://www.w3.org/2000/svg"
   xmlns:sodipodi="http://sodipodi.sourceforge.net/DTD/sodipodi-0.dtd"
   xmlns:inkscape="http://www.inkscape.org/namespaces/inkscape"
   version="1.1"
   x="0px"
   y="0px"
   width="48.884075"
   height="47.626854"
   viewBox="0 0 48.884075 47.626854"
   enable-background="new 0 0 500 370"
   xml:space="preserve"
   id="svg3116"
   inkscape:version="0.48.4 r9939"
   sodipodi:docname="workspace.svg"><metadata
     id="metadata3207"><rdf:RDF><cc:Work
         rdf:about=""><dc:format>image/svg+xml</dc:format><dc:type
           rdf:resource="http://purl.org/dc/dcmitype/StillImage" /><dc:title></dc:title></cc:Work></rdf:RDF></metadata><defs
     id="defs3205" /><sodipodi:namedview
     pagecolor="#ffffff"
     bordercolor="#666666"
     borderopacity="1"
     objecttolerance="10"
     gridtolerance="10"
     guidetolerance="10"
     inkscape:pageopacity="0"
     inkscape:pageshadow="2"
     inkscape:window-width="640"
     inkscape:window-height="480"
     id="namedview3203"
     showgrid="false"
     fit-margin-top="0"
     fit-margin-left="0"
     fit-margin-right="0"
     fit-margin-bottom="0"
     inkscape:zoom="0.64864865"
     inkscape:cx="-98.05385"
     inkscape:cy="-23.310545"
     inkscape:window-x="69"
     inkscape:window-y="34"
     inkscape:window-maximized="0"
     inkscape:current-layer="svg3116" /><g
     id="Layer_5"
     transform="translate(-348.05385,-114.0626)"><g
       id="g3119"><g
         id="g3121"><circle
           cx="366.03082"
           cy="131.72572"
           r="11.52893"
           id="circle3123"
           sodipodi:cx="366.03082"
           sodipodi:cy="131.72572"
           sodipodi:rx="11.52893"
           sodipodi:ry="11.52893"
           style="fill:#4effbb"
           d="m 377.55975,131.72572 c 0,6.36726 -5.16168,11.52893 -11.52893,11.52893 -6.36725,0 -11.52893,-5.16167 -11.52893,-11.52893 0,-6.36725 5.16168,-11.52893 11.52893,-11.52893 6.36725,0 11.52893,5.16168 11.52893,11.52893 z" /></g><g
         id="g3125"><path
           d="m 362.47083,131.71463 c -1.87445,0.076 -3.46118,-1.38678 -3.53717,-3.26089 -0.076,-1.87411 1.38712,-3.46056 3.26154,-3.53657 1.87381,-0.076 3.46057,1.3868 3.53656,3.26092 0.076,1.87413 -1.38712,3.46057 -3.26093,3.53654 z m -0.16971,-4.18511 c -0.43369,0.0176 -0.77271,0.38461 -0.75513,0.81829 0.0176,0.4337 0.38522,0.77206 0.81891,0.75447 0.43369,-0.0176 0.77206,-0.38457 0.75449,-0.81827 -0.0176,-0.43368 -0.38456,-0.77208 -0.81827,-0.75449 z"
           id="path3127"
           inkscape:connector-curvature="0"
           style="fill:#222051" /></g><g
         id="g3129"><path
           d="m 361.84476,121.90076 c -0.72131,0.0292 -1.52246,-0.52407 -1.55173,-1.2454 l -0.21185,-5.2247 c -0.0292,-0.72133 0.72449,-1.3377 1.44583,-1.36695 0.72131,-0.0292 1.52246,0.52408 1.55173,1.24541 l 0.21182,5.2247 c 0.0293,0.72133 -0.72446,1.3377 -1.4458,1.36694 z"
           id="path3131"
           inkscape:connector-curvature="0"
           style="fill:#222051" /></g><g
         id="g3133"><path
           d="m 362.66568,142.14648 c -0.72134,0.0292 -1.52249,-0.52406 -1.55173,-1.24541 l -0.21185,-5.2247 c -0.0292,-0.72133 0.72449,-1.33769 1.4458,-1.36694 0.72134,-0.0292 1.52249,0.52408 1.55173,1.24541 l 0.21185,5.2247 c 0.0293,0.72133 -0.72449,1.33769 -1.4458,1.36694 z"
           id="path3135"
           inkscape:connector-curvature="0"
           style="fill:#222051" /></g><g
         id="g3137"><path
           d="m 368.30066,127.85353 c -0.0292,-0.72133 0.52408,-1.52248 1.24542,-1.55173 l 5.2247,-0.21185 c 0.72131,-0.0292 1.33768,0.72448 1.36694,1.44581 0.0292,0.72134 -0.52408,1.52248 -1.24542,1.55173 l -5.2247,0.21184 c -0.72131,0.0292 -1.33767,-0.72447 -1.36694,-1.4458 z"
           id="path3139"
           inkscape:connector-curvature="0"
           style="fill:#222051" /></g><g
         id="g3141"><path
           d="m 348.05496,128.67444 c -0.0293,-0.72133 0.52405,-1.52248 1.24539,-1.55173 l 5.2247,-0.21185 c 0.72134,-0.0293 1.33771,0.72447 1.36694,1.44581 0.0293,0.72133 -0.52408,1.52248 -1.24539,1.55173 l -5.2247,0.21185 c -0.72134,0.0293 -1.3377,-0.72448 -1.36694,-1.44581 z"
           id="path3143"
           inkscape:connector-curvature="0"
           style="fill:#222051" /></g><g
         id="g3145"><path
           d="m 362.94617,139.35748 c -6.03723,0.2448 -11.14792,-4.46761 -11.39273,-10.50484 -0.24478,-6.03724 4.46759,-11.14826 10.50485,-11.39305 6.03723,-0.2448 11.14795,4.46793 11.39273,10.50516 0.24478,6.03723 -4.46762,11.14794 -10.50485,11.39273 z m -0.78199,-19.28553 c -4.59647,0.18637 -8.18478,4.07796 -7.99838,8.67477 0.18637,4.5968 4.07797,8.18478 8.67444,7.99841 4.5965,-0.18637 8.18481,-4.07765 7.99841,-8.67445 -0.18637,-4.59681 -4.07797,-8.18511 -8.67447,-7.99873 z"
           id="path3147"
           inkscape:connector-curvature="0"
           style="fill:#222051" /></g></g><g
       id="g3149"><g
         id="g3151"><g
           id="g3153"><path
             d="m 394.29214,152.17906 c -1.5192,0.0616 -2.80533,-1.12398 -2.86691,-2.64317 -0.0616,-1.5192 1.1243,-2.80533 2.64349,-2.86693 1.51919,-0.0616 2.80533,1.1243 2.86691,2.64349 0.0616,1.5192 -1.12429,2.80501 -2.64349,2.86661 z m -0.14398,-3.55084 c -0.43881,0.0178 -0.78146,0.38943 -0.76367,0.82823 0.0178,0.43878 0.3894,0.78114 0.82822,0.76335 0.43878,-0.0178 0.78146,-0.38911 0.76367,-0.82791 -0.0178,-0.43878 -0.38944,-0.78146 -0.82822,-0.76367 z"
             id="path3155"
             inkscape:connector-curvature="0"
             style="fill:#4cffba" /></g><g
           id="g3157"><path
             d="m 382.82724,158.17046 c -0.14731,0.006 -0.29855,-0.0214 -0.44235,-0.0862 -0.49329,-0.22275 -0.71295,-0.80348 -0.4902,-1.29707 0.082,-0.18283 0.16501,-0.37369 0.24643,-0.57088 0.20651,-0.5006 0.77875,-0.74004 1.28036,-0.53232 0.50027,0.2065 0.7388,0.77975 0.53232,1.28035 -0.0896,0.21732 -0.18069,0.42767 -0.27219,0.62943 -0.15765,0.34976 -0.4953,0.56213 -0.85437,0.57669 z m 1.23364,-3.71691 c -0.0797,0.003 -0.16113,-0.003 -0.24231,-0.0205 -0.53027,-0.11169 -0.86887,-0.6317 -0.75748,-1.16167 0.0418,-0.19749 0.0785,-0.39606 0.11005,-0.59442 0.085,-0.53494 0.58707,-0.89836 1.12262,-0.81435 0.53433,0.085 0.89902,0.58769 0.81403,1.12231 -0.0367,0.23051 -0.0797,0.46127 -0.12787,0.69098 -0.0943,0.44813 -0.48151,0.75993 -0.91904,0.77767 z m 0.0965,-3.89119 c -0.46048,0.0187 -0.88443,-0.29121 -0.99338,-0.75667 -0.0403,-0.17468 -0.09,-0.34514 -0.15097,-0.50909 -0.18796,-0.5079 0.0715,-1.07166 0.57944,-1.25963 0.50601,-0.1882 1.07166,0.0712 1.25964,0.57945 0.0861,0.2332 0.16077,0.48314 0.22174,0.74258 0.12299,0.52748 -0.20444,1.0547 -0.7316,1.17796 -0.062,0.0147 -0.12362,0.0229 -0.18487,0.0254 z"
             id="path3159"
             inkscape:connector-curvature="0"
             style="fill:#4cffba" /></g><g
           id="g3161"><path
             d="m 382.63126,161.68716 c -1.5192,0.0616 -2.80533,-1.1243 -2.86691,-2.64349 -0.0616,-1.5192 1.1243,-2.80533 2.64349,-2.86693 1.51919,-0.0616 2.80469,1.12433 2.86627,2.64352 0.0616,1.5192 -1.12366,2.8053 -2.64285,2.8669 z m -0.14399,-3.55116 c -0.43878,0.0178 -0.78146,0.38943 -0.76367,0.82823 0.0178,0.4388 0.38943,0.78146 0.82822,0.76367 0.43879,-0.0178 0.78082,-0.3894 0.76303,-0.8282 -0.0178,-0.43878 -0.38879,-0.78149 -0.82758,-0.7637 z"
             id="path3163"
             inkscape:connector-curvature="0"
             style="fill:#4cffba" /></g></g><g
         id="g3165"><g
           id="g3167"><g
             id="g3169"><path
               d="m 382.737,132.09134 c -0.54083,0.0219 -0.99741,-0.39876 -1.01935,-0.93991 l -0.14401,-3.55116 c -0.0219,-0.54116 0.39908,-0.99742 0.93991,-1.01936 0.54086,-0.0219 0.99744,0.39876 1.01938,0.93991 l 0.14398,3.55117 c 0.0219,0.54115 -0.39908,0.99742 -0.93991,1.01935 z"
               id="path3171"
               inkscape:connector-curvature="0"
               style="fill:#222051" /></g><g
             id="g3173"><path
               d="m 386.41437,128.31688 -3.82413,0.15506 c -0.54083,0.0219 -0.99741,-0.39876 -1.01935,-0.93992 -0.0219,-0.54115 0.39908,-0.99742 0.93991,-1.01935 l 3.82413,-0.15506 c 0.54083,-0.0219 0.99741,0.39875 1.01935,0.93991 0.0219,0.54116 -0.39908,0.99742 -0.93991,1.01936 z"
               id="path3175"
               inkscape:connector-curvature="0"
               style="fill:#222051" /></g></g><g
           id="g3177"><path
             d="m 391.0007,145.25766 c -0.0134,5.5e-4 -0.0261,0.001 -0.0396,0.002 -0.54083,0.0219 -0.97128,-0.19589 -0.97156,-0.73761 -0.004,-6.32841 -2.86429,-12.04774 -8.06406,-16.32532 -0.41833,-0.34398 -0.47604,-0.90122 -0.13205,-1.31923 0.3446,-0.41803 0.9624,-0.44849 1.38141,-0.1039 5.66101,4.65623 8.77109,10.80697 8.77524,17.73203 3.4e-4,0.52799 -0.42645,0.73124 -0.94943,0.75243 z"
             id="path3179"
             inkscape:connector-curvature="0"
             style="fill:#222051" /></g><g
           id="g3181"><path
             d="m 391.16373,149.29448 c -1.5192,0.0616 -2.80533,-1.12431 -2.86691,-2.64351 -0.0616,-1.5192 1.1243,-2.80533 2.64349,-2.86693 1.51919,-0.0616 2.80533,1.1243 2.86691,2.64349 0.0616,1.5192 -1.1243,2.80535 -2.64349,2.86695 z m -0.14399,-3.55118 c -0.43878,0.0178 -0.78146,0.38943 -0.76367,0.82823 0.0178,0.4388 0.38943,0.78146 0.82822,0.76367 0.43881,-0.0178 0.78146,-0.38943 0.76367,-0.82822 -0.0178,-0.43879 -0.38943,-0.78147 -0.82822,-0.76368 z"
             id="path3183"
             inkscape:connector-curvature="0"
             style="fill:#222051" /></g><g
           id="g3185"><g
             id="g3187"><path
               d="m 378.3894,144.2773 c -0.25064,0.0102 -0.50516,-0.0753 -0.70425,-0.25891 -0.39816,-0.36684 -0.42334,-0.9874 -0.0562,-1.38527 l 3.91937,-4.25063 c 0.36716,-0.39818 0.98706,-0.42331 1.38525,-0.0562 0.39816,0.36684 0.42334,0.9874 0.0562,1.38527 l -3.91934,4.25063 c -0.18356,0.19908 -0.43032,0.30492 -0.681,0.31508 z"
               id="path3189"
               inkscape:connector-curvature="0"
               style="fill:#222051" /></g><g
             id="g3191"><path
               d="m 382.4744,144.11166 c -0.25064,0.0102 -0.50516,-0.0754 -0.70425,-0.25891 l -4.25064,-3.91936 c -0.39816,-0.36684 -0.42331,-0.9874 -0.0562,-1.38525 0.36716,-0.39819 0.98706,-0.42332 1.38525,-0.0562 l 4.25061,3.91936 c 0.39819,0.36684 0.42334,0.9874 0.0562,1.38527 -0.18357,0.19908 -0.43036,0.30491 -0.681,0.31507 z"
               id="path3193"
               inkscape:connector-curvature="0"
               style="fill:#222051" /></g></g><g
           id="g3195"><path
             d="m 379.69882,155.28554 c -0.14731,0.006 -0.29855,-0.0214 -0.44238,-0.0862 -0.49326,-0.22275 -0.71292,-0.80348 -0.49017,-1.29706 0.082,-0.18285 0.16501,-0.3737 0.24643,-0.57089 0.20651,-0.50027 0.77939,-0.74007 1.28036,-0.53232 0.50027,0.2065 0.7388,0.77977 0.53232,1.28035 -0.0896,0.21733 -0.18069,0.42769 -0.27219,0.62943 -0.15765,0.34976 -0.4953,0.56213 -0.85437,0.57669 z m 1.233,-3.71688 c -0.0797,0.003 -0.16113,-0.003 -0.24231,-0.0205 -0.53027,-0.11169 -0.86887,-0.6317 -0.75748,-1.16165 0.0418,-0.19751 0.0785,-0.39607 0.11005,-0.59442 0.0856,-0.53531 0.58704,-0.89932 1.12262,-0.81436 0.53433,0.085 0.89902,0.58769 0.81403,1.12231 -0.0367,0.23051 -0.0797,0.46127 -0.12787,0.69098 -0.0942,0.44812 -0.48151,0.75992 -0.91904,0.77766 z m 0.0971,-3.89122 c -0.46048,0.0187 -0.88443,-0.29121 -0.99338,-0.75665 -0.0403,-0.17468 -0.09,-0.34515 -0.15097,-0.50909 -0.18796,-0.50792 0.0715,-1.07167 0.57944,-1.25963 0.50534,-0.18851 1.07166,0.0712 1.25964,0.57944 0.0861,0.2332 0.16077,0.48315 0.22174,0.7426 0.12299,0.52748 -0.20444,1.05469 -0.7316,1.17796 -0.062,0.0146 -0.12362,0.0229 -0.18487,0.0254 z"
             id="path3197"
             inkscape:connector-curvature="0"
             style="fill:#222051" /></g><g
           id="g3199"><path
             d="m 379.5022,158.80228 c -1.5192,0.0616 -2.80533,-1.1243 -2.86691,-2.64349 -0.0616,-1.5192 1.1243,-2.80501 2.64349,-2.86661 1.51919,-0.0616 2.80533,1.12398 2.86691,2.64317 0.0616,1.51919 -1.1243,2.80533 -2.64349,2.86693 z m -0.14398,-3.55085 c -0.43878,0.0178 -0.78146,0.38911 -0.76367,0.82791 0.0178,0.4388 0.38943,0.78146 0.82822,0.76367 0.43879,-0.0178 0.78146,-0.38943 0.76367,-0.82822 -0.0178,-0.43879 -0.38941,-0.78115 -0.82822,-0.76336 z"
             id="path3201"
             inkscape:connector-curvature="0"
             style="fill:#222051" /></g></g></g></g></svg>